<svg width="15" height="17" viewBox="0 0 15 17" fill="none" xmlns="http://www.w3.org/2000/svg">
<path d="M2.33245 15.1179C2.33245 15.3647 2.43085 15.6014 2.60599 15.776C2.78113 15.9505 3.01867 16.0485 3.26636 16.0485H7.93588C10.0297 16.0485 11.6808 15.3245 12.809 14.1659C13.9259 13.0185 14.4732 11.5007 14.4732 9.99971C14.4732 8.49868 13.9259 6.9809 12.809 5.83349C11.6808 4.67491 10.0297 3.95091 7.93588 3.95091H3.65299L5.56096 2.04973C5.73108 1.87422 5.82521 1.63915 5.82308 1.39515C5.82095 1.15116 5.72274 0.917756 5.54958 0.745218C5.37643 0.57268 5.14219 0.474812 4.89733 0.472691C4.65246 0.470571 4.41656 0.564369 4.24042 0.733882L0.738278 4.22358C0.563198 4.39809 0.464844 4.63474 0.464844 4.8815C0.464844 5.12826 0.563198 5.36491 0.738278 5.53942L4.24042 9.02911C4.41656 9.19863 4.65246 9.29243 4.89733 9.29031C5.14219 9.28819 5.37643 9.19032 5.54958 9.01778C5.72274 8.84524 5.82095 8.61184 5.82308 8.36784C5.82521 8.12385 5.73108 7.88878 5.56096 7.71327L3.65299 5.81208H7.93588C9.57768 5.81208 10.7283 6.36764 11.4679 7.12886C12.2188 7.90125 12.6054 8.94164 12.6054 9.99971C12.6054 11.0578 12.2188 12.0991 11.4679 12.8706C10.7283 13.6318 9.57768 14.1873 7.93588 14.1873H3.26636C3.01867 14.1873 2.78113 14.2854 2.60599 14.4599C2.43085 14.6344 2.33245 14.8711 2.33245 15.1179Z" fill="white"/>
</svg>
