<svg width="24" height="24" viewBox="0 0 24 24" fill="none" xmlns="http://www.w3.org/2000/svg">
<path d="M17.1984 22.0004C19.8494 22.0004 21.9984 19.8513 21.9984 17.2004C21.9984 14.5494 19.8494 12.4004 17.1984 12.4004C14.5475 12.4004 12.3984 14.5494 12.3984 17.2004C12.3984 19.8513 14.5475 22.0004 17.1984 22.0004Z" stroke="white" stroke-miterlimit="10" stroke-linecap="round" stroke-linejoin="round"/>
<path d="M18.9902 17.2598H15.4102" stroke="white" stroke-miterlimit="10" stroke-linecap="round" stroke-linejoin="round"/>
<path d="M17.1992 15.5098V19.0997" stroke="white" stroke-miterlimit="10" stroke-linecap="round" stroke-linejoin="round"/>
<path d="M22 8.68964C22 10.6596 21.49 12.3996 20.69 13.9096C19.81 12.9796 18.57 12.3997 17.2 12.3997C14.55 12.3997 12.4 14.5496 12.4 17.1996C12.4 18.4296 12.87 19.5497 13.63 20.3997C13.26 20.5697 12.92 20.7096 12.62 20.8096C12.28 20.9296 11.72 20.9296 11.38 20.8096C8.48 19.8196 2 15.6896 2 8.68964C2 5.59964 4.49 3.09961 7.56 3.09961C9.37 3.09961 10.99 3.97965 12 5.32965C13.01 3.97965 14.63 3.09961 16.44 3.09961C19.51 3.09961 22 5.59964 22 8.68964Z" stroke="white" stroke-linecap="round" stroke-linejoin="round"/>
</svg>
