<svg width="24" height="24" viewBox="0 0 24 24" fill="none" xmlns="http://www.w3.org/2000/svg">
<path fill-rule="evenodd" clip-rule="evenodd" d="M3 3H12V8.25L12.75 9H18V10.5H19.5V7.2L19.275 6.66L14.355 1.71L13.83 1.5H2.25L1.5 2.25V21.75L2.25 22.5H7.5V21H3V3ZM13.5 3L18 7.5H13.5V3ZM21.75 12H9.75L9 12.75V21.75L9.75 22.5H21.75L22.5 21.75V12.75L21.75 12ZM21 13.5V19.5L18.555 17.1H17.49L15.75 18.855L12.555 15.66H11.49L10.5 16.65V13.5H21ZM16.8 19.905L18.015 18.69L20.325 21H17.895L16.8 19.905ZM10.5 21V18.765L12 17.265L15.78 21H10.5ZM18.75 15.75C18.9489 15.75 19.1397 15.671 19.2803 15.5303C19.421 15.3897 19.5 15.1989 19.5 15C19.5 14.8011 19.421 14.6103 19.2803 14.4697C19.1397 14.329 18.9489 14.25 18.75 14.25C18.5511 14.25 18.3603 14.329 18.2197 14.4697C18.079 14.6103 18 14.8011 18 15C18 15.1989 18.079 15.3897 18.2197 15.5303C18.3603 15.671 18.5511 15.75 18.75 15.75Z" fill="white"/>
</svg>
